<?xml version="1.0" encoding="UTF-8"?> <svg xmlns="http://www.w3.org/2000/svg" width="2398" height="30" viewBox="0 0 2398 30" fill="none"> <path d="M1.26 20V9.05H3.72V20H1.26ZM8.37047 20.06V17.765H10.4105C10.9205 17.765 11.3805 17.69 11.7905 17.54C12.2005 17.38 12.5505 17.16 12.8405 16.88C13.1305 16.59 13.3505 16.245 13.5005 15.845C13.6505 15.435 13.7255 14.985 13.7255 14.495C13.7255 13.985 13.6505 13.53 13.5005 13.13C13.3505 12.73 13.1305 12.39 12.8405 12.11C12.5505 11.83 12.2005 11.62 11.7905 11.48C11.3805 11.33 10.9205 11.255 10.4105 11.255H8.37047V8.96H10.2755C11.2655 8.96 12.1305 9.105 12.8705 9.395C13.6105 9.685 14.2305 10.08 14.7305 10.58C15.2305 11.08 15.6005 11.655 15.8405 12.305C16.0905 12.945 16.2155 13.62 16.2155 14.33V14.66C16.2155 15.32 16.0905 15.975 15.8405 16.625C15.6005 17.265 15.2305 17.845 14.7305 18.365C14.2305 18.875 13.6105 19.285 12.8705 19.595C12.1305 19.905 11.2655 20.06 10.2755 20.06H8.37047ZM6.21047 20.06V8.96H8.67047V20.06H6.21047ZM17.9292 20V9.05H20.3292V20H17.9292ZM20.0292 20V17.96H24.8142V20H20.0292ZM20.0292 15.455V13.415H24.4692V15.455H20.0292ZM20.0292 11.09V9.05H24.7092V11.09H20.0292ZM26.8355 20V9.05H30.8705L34.9955 18.005H35.5055L35.2055 18.275V9.05H37.5155V20H33.4505L29.3255 11.045H28.8155L29.1155 10.775V20H26.8355ZM42.1501 20V10.895H44.6101V20H42.1501ZM39.0751 11.195V9.05H47.7001V11.195H39.0751ZM49.2776 20V9.05H51.7376V20H49.2776ZM56.403 20V10.895H58.863V20H56.403ZM53.328 11.195V9.05H61.953V11.195H53.328ZM65.673 15.845L62.478 9.05H64.998L67.293 14.135L66.858 14H68.118L67.653 14.135L69.723 9.05H72.108L69.168 15.845H65.673ZM66.213 20V15.5H68.628V20H66.213Z" fill="black"></path> <path d="M94.26 20V9.05H96.72V20H94.26ZM101.37 20.06V17.765H103.41C103.92 17.765 104.38 17.69 104.79 17.54C105.2 17.38 105.55 17.16 105.84 16.88C106.13 16.59 106.35 16.245 106.5 15.845C106.65 15.435 106.725 14.985 106.725 14.495C106.725 13.985 106.65 13.53 106.5 13.13C106.35 12.73 106.13 12.39 105.84 12.11C105.55 11.83 105.2 11.62 104.79 11.48C104.38 11.33 103.92 11.255 103.41 11.255H101.37V8.96H103.275C104.265 8.96 105.13 9.105 105.87 9.395C106.61 9.685 107.23 10.08 107.73 10.58C108.23 11.08 108.6 11.655 108.84 12.305C109.09 12.945 109.215 13.62 109.215 14.33V14.66C109.215 15.32 109.09 15.975 108.84 16.625C108.6 17.265 108.23 17.845 107.73 18.365C107.23 18.875 106.61 19.285 105.87 19.595C105.13 19.905 104.265 20.06 103.275 20.06H101.37ZM99.2105 20.06V8.96H101.67V20.06H99.2105ZM110.929 20V9.05H113.329V20H110.929ZM113.029 20V17.96H117.814V20H113.029ZM113.029 15.455V13.415H117.469V15.455H113.029ZM113.029 11.09V9.05H117.709V11.09H113.029ZM119.835 20V9.05H123.87L127.995 18.005H128.505L128.205 18.275V9.05H130.515V20H126.45L122.325 11.045H121.815L122.115 10.775V20H119.835ZM135.15 20V10.895H137.61V20H135.15ZM132.075 11.195V9.05H140.7V11.195H132.075ZM142.278 20V9.05H144.738V20H142.278ZM149.403 20V10.895H151.863V20H149.403ZM146.328 11.195V9.05H154.953V11.195H146.328ZM158.673 15.845L155.478 9.05H157.998L160.293 14.135L159.858 14H161.118L160.653 14.135L162.723 9.05H165.108L162.168 15.845H158.673ZM159.213 20V15.5H161.628V20H159.213Z" fill="black"></path> <path d="M187.26 20V9.05H189.72V20H187.26ZM194.37 20.06V17.765H196.41C196.92 17.765 197.38 17.69 197.79 17.54C198.2 17.38 198.55 17.16 198.84 16.88C199.13 16.59 199.35 16.245 199.5 15.845C199.65 15.435 199.725 14.985 199.725 14.495C199.725 13.985 199.65 13.53 199.5 13.13C199.35 12.73 199.13 12.39 198.84 12.11C198.55 11.83 198.2 11.62 197.79 11.48C197.38 11.33 196.92 11.255 196.41 11.255H194.37V8.96H196.275C197.265 8.96 198.13 9.105 198.87 9.395C199.61 9.685 200.23 10.08 200.73 10.58C201.23 11.08 201.6 11.655 201.84 12.305C202.09 12.945 202.215 13.62 202.215 14.33V14.66C202.215 15.32 202.09 15.975 201.84 16.625C201.6 17.265 201.23 17.845 200.73 18.365C200.23 18.875 199.61 19.285 198.87 19.595C198.13 19.905 197.265 20.06 196.275 20.06H194.37ZM192.21 20.06V8.96H194.67V20.06H192.21ZM203.929 20V9.05H206.329V20H203.929ZM206.029 20V17.96H210.814V20H206.029ZM206.029 15.455V13.415H210.469V15.455H206.029ZM206.029 11.09V9.05H210.709V11.09H206.029ZM212.835 20V9.05H216.87L220.995 18.005H221.505L221.205 18.275V9.05H223.515V20H219.45L215.325 11.045H214.815L215.115 10.775V20H212.835ZM228.15 20V10.895H230.61V20H228.15ZM225.075 11.195V9.05H233.7V11.195H225.075ZM235.278 20V9.05H237.738V20H235.278ZM242.403 20V10.895H244.863V20H242.403ZM239.328 11.195V9.05H247.953V11.195H239.328ZM251.673 15.845L248.478 9.05H250.998L253.293 14.135L252.858 14H254.118L253.653 14.135L255.723 9.05H258.108L255.168 15.845H251.673ZM252.213 20V15.5H254.628V20H252.213Z" fill="black"></path> <path d="M280.26 20V9.05H282.72V20H280.26ZM287.37 20.06V17.765H289.41C289.92 17.765 290.38 17.69 290.79 17.54C291.2 17.38 291.55 17.16 291.84 16.88C292.13 16.59 292.35 16.245 292.5 15.845C292.65 15.435 292.725 14.985 292.725 14.495C292.725 13.985 292.65 13.53 292.5 13.13C292.35 12.73 292.13 12.39 291.84 12.11C291.55 11.83 291.2 11.62 290.79 11.48C290.38 11.33 289.92 11.255 289.41 11.255H287.37V8.96H289.275C290.265 8.96 291.13 9.105 291.87 9.395C292.61 9.685 293.23 10.08 293.73 10.58C294.23 11.08 294.6 11.655 294.84 12.305C295.09 12.945 295.215 13.62 295.215 14.33V14.66C295.215 15.32 295.09 15.975 294.84 16.625C294.6 17.265 294.23 17.845 293.73 18.365C293.23 18.875 292.61 19.285 291.87 19.595C291.13 19.905 290.265 20.06 289.275 20.06H287.37ZM285.21 20.06V8.96H287.67V20.06H285.21ZM296.929 20V9.05H299.329V20H296.929ZM299.029 20V17.96H303.814V20H299.029ZM299.029 15.455V13.415H303.469V15.455H299.029ZM299.029 11.09V9.05H303.709V11.09H299.029ZM305.835 20V9.05H309.87L313.995 18.005H314.505L314.205 18.275V9.05H316.515V20H312.45L308.325 11.045H307.815L308.115 10.775V20H305.835ZM321.15 20V10.895H323.61V20H321.15ZM318.075 11.195V9.05H326.7V11.195H318.075ZM328.278 20V9.05H330.738V20H328.278ZM335.403 20V10.895H337.863V20H335.403ZM332.328 11.195V9.05H340.953V11.195H332.328ZM344.673 15.845L341.478 9.05H343.998L346.293 14.135L345.858 14H347.118L346.653 14.135L348.723 9.05H351.108L348.168 15.845H344.673ZM345.213 20V15.5H347.628V20H345.213Z" fill="black"></path> <path d="M373.26 20V9.05H375.72V20H373.26ZM380.37 20.06V17.765H382.41C382.92 17.765 383.38 17.69 383.79 17.54C384.2 17.38 384.55 17.16 384.84 16.88C385.13 16.59 385.35 16.245 385.5 15.845C385.65 15.435 385.725 14.985 385.725 14.495C385.725 13.985 385.65 13.53 385.5 13.13C385.35 12.73 385.13 12.39 384.84 12.11C384.55 11.83 384.2 11.62 383.79 11.48C383.38 11.33 382.92 11.255 382.41 11.255H380.37V8.96H382.275C383.265 8.96 384.13 9.105 384.87 9.395C385.61 9.685 386.23 10.08 386.73 10.58C387.23 11.08 387.6 11.655 387.84 12.305C388.09 12.945 388.215 13.62 388.215 14.33V14.66C388.215 15.32 388.09 15.975 387.84 16.625C387.6 17.265 387.23 17.845 386.73 18.365C386.23 18.875 385.61 19.285 384.87 19.595C384.13 19.905 383.265 20.06 382.275 20.06H380.37ZM378.21 20.06V8.96H380.67V20.06H378.21ZM389.929 20V9.05H392.329V20H389.929ZM392.029 20V17.96H396.814V20H392.029ZM392.029 15.455V13.415H396.469V15.455H392.029ZM392.029 11.09V9.05H396.709V11.09H392.029ZM398.835 20V9.05H402.87L406.995 18.005H407.505L407.205 18.275V9.05H409.515V20H405.45L401.325 11.045H400.815L401.115 10.775V20H398.835ZM414.15 20V10.895H416.61V20H414.15ZM411.075 11.195V9.05H419.7V11.195H411.075ZM421.278 20V9.05H423.738V20H421.278ZM428.403 20V10.895H430.863V20H428.403ZM425.328 11.195V9.05H433.953V11.195H425.328ZM437.673 15.845L434.478 9.05H436.998L439.293 14.135L438.858 14H440.118L439.653 14.135L441.723 9.05H444.108L441.168 15.845H437.673ZM438.213 20V15.5H440.628V20H438.213Z" fill="black"></path> <path d="M466.26 20V9.05H468.72V20H466.26ZM473.37 20.06V17.765H475.41C475.92 17.765 476.38 17.69 476.79 17.54C477.2 17.38 477.55 17.16 477.84 16.88C478.13 16.59 478.35 16.245 478.5 15.845C478.65 15.435 478.725 14.985 478.725 14.495C478.725 13.985 478.65 13.53 478.5 13.13C478.35 12.73 478.13 12.39 477.84 12.11C477.55 11.83 477.2 11.62 476.79 11.48C476.38 11.33 475.92 11.255 475.41 11.255H473.37V8.96H475.275C476.265 8.96 477.13 9.105 477.87 9.395C478.61 9.685 479.23 10.08 479.73 10.58C480.23 11.08 480.6 11.655 480.84 12.305C481.09 12.945 481.215 13.62 481.215 14.33V14.66C481.215 15.32 481.09 15.975 480.84 16.625C480.6 17.265 480.23 17.845 479.73 18.365C479.23 18.875 478.61 19.285 477.87 19.595C477.13 19.905 476.265 20.06 475.275 20.06H473.37ZM471.21 20.06V8.96H473.67V20.06H471.21ZM482.929 20V9.05H485.329V20H482.929ZM485.029 20V17.96H489.814V20H485.029ZM485.029 15.455V13.415H489.469V15.455H485.029ZM485.029 11.09V9.05H489.709V11.09H485.029ZM491.835 20V9.05H495.87L499.995 18.005H500.505L500.205 18.275V9.05H502.515V20H498.45L494.325 11.045H493.815L494.115 10.775V20H491.835ZM507.15 20V10.895H509.61V20H507.15ZM504.075 11.195V9.05H512.7V11.195H504.075ZM514.278 20V9.05H516.738V20H514.278ZM521.403 20V10.895H523.863V20H521.403ZM518.328 11.195V9.05H526.953V11.195H518.328ZM530.673 15.845L527.478 9.05H529.998L532.293 14.135L531.858 14H533.118L532.653 14.135L534.723 9.05H537.108L534.168 15.845H530.673ZM531.213 20V15.5H533.628V20H531.213Z" fill="black"></path> <path d="M559.26 20V9.05H561.72V20H559.26ZM566.37 20.06V17.765H568.41C568.92 17.765 569.38 17.69 569.79 17.54C570.2 17.38 570.55 17.16 570.84 16.88C571.13 16.59 571.35 16.245 571.5 15.845C571.65 15.435 571.725 14.985 571.725 14.495C571.725 13.985 571.65 13.53 571.5 13.13C571.35 12.73 571.13 12.39 570.84 12.11C570.55 11.83 570.2 11.62 569.79 11.48C569.38 11.33 568.92 11.255 568.41 11.255H566.37V8.96H568.275C569.265 8.96 570.13 9.105 570.87 9.395C571.61 9.685 572.23 10.08 572.73 10.58C573.23 11.08 573.6 11.655 573.84 12.305C574.09 12.945 574.215 13.62 574.215 14.33V14.66C574.215 15.32 574.09 15.975 573.84 16.625C573.6 17.265 573.23 17.845 572.73 18.365C572.23 18.875 571.61 19.285 570.87 19.595C570.13 19.905 569.265 20.06 568.275 20.06H566.37ZM564.21 20.06V8.96H566.67V20.06H564.21ZM575.929 20V9.05H578.329V20H575.929ZM578.029 20V17.96H582.814V20H578.029ZM578.029 15.455V13.415H582.469V15.455H578.029ZM578.029 11.09V9.05H582.709V11.09H578.029ZM584.835 20V9.05H588.87L592.995 18.005H593.505L593.205 18.275V9.05H595.515V20H591.45L587.325 11.045H586.815L587.115 10.775V20H584.835ZM600.15 20V10.895H602.61V20H600.15ZM597.075 11.195V9.05H605.7V11.195H597.075ZM607.278 20V9.05H609.738V20H607.278ZM614.403 20V10.895H616.863V20H614.403ZM611.328 11.195V9.05H619.953V11.195H611.328ZM623.673 15.845L620.478 9.05H622.998L625.293 14.135L624.858 14H626.118L625.653 14.135L627.723 9.05H630.108L627.168 15.845H623.673ZM624.213 20V15.5H626.628V20H624.213Z" fill="black"></path> <path d="M652.26 20V9.05H654.72V20H652.26ZM659.37 20.06V17.765H661.41C661.92 17.765 662.38 17.69 662.79 17.54C663.2 17.38 663.55 17.16 663.84 16.88C664.13 16.59 664.35 16.245 664.5 15.845C664.65 15.435 664.725 14.985 664.725 14.495C664.725 13.985 664.65 13.53 664.5 13.13C664.35 12.73 664.13 12.39 663.84 12.11C663.55 11.83 663.2 11.62 662.79 11.48C662.38 11.33 661.92 11.255 661.41 11.255H659.37V8.96H661.275C662.265 8.96 663.13 9.105 663.87 9.395C664.61 9.685 665.23 10.08 665.73 10.58C666.23 11.08 666.6 11.655 666.84 12.305C667.09 12.945 667.215 13.62 667.215 14.33V14.66C667.215 15.32 667.09 15.975 666.84 16.625C666.6 17.265 666.23 17.845 665.73 18.365C665.23 18.875 664.61 19.285 663.87 19.595C663.13 19.905 662.265 20.06 661.275 20.06H659.37ZM657.21 20.06V8.96H659.67V20.06H657.21ZM668.929 20V9.05H671.329V20H668.929ZM671.029 20V17.96H675.814V20H671.029ZM671.029 15.455V13.415H675.469V15.455H671.029ZM671.029 11.09V9.05H675.709V11.09H671.029ZM677.835 20V9.05H681.87L685.995 18.005H686.505L686.205 18.275V9.05H688.515V20H684.45L680.325 11.045H679.815L680.115 10.775V20H677.835ZM693.15 20V10.895H695.61V20H693.15ZM690.075 11.195V9.05H698.7V11.195H690.075ZM700.278 20V9.05H702.738V20H700.278ZM707.403 20V10.895H709.863V20H707.403ZM704.328 11.195V9.05H712.953V11.195H704.328ZM716.673 15.845L713.478 9.05H715.998L718.293 14.135L717.858 14H719.118L718.653 14.135L720.723 9.05H723.108L720.168 15.845H716.673ZM717.213 20V15.5H719.628V20H717.213Z" fill="black"></path> <path d="M745.26 20V9.05H747.72V20H745.26ZM752.37 20.06V17.765H754.41C754.92 17.765 755.38 17.69 755.79 17.54C756.2 17.38 756.55 17.16 756.84 16.88C757.13 16.59 757.35 16.245 757.5 15.845C757.65 15.435 757.725 14.985 757.725 14.495C757.725 13.985 757.65 13.53 757.5 13.13C757.35 12.73 757.13 12.39 756.84 12.11C756.55 11.83 756.2 11.62 755.79 11.48C755.38 11.33 754.92 11.255 754.41 11.255H752.37V8.96H754.275C755.265 8.96 756.13 9.105 756.87 9.395C757.61 9.685 758.23 10.08 758.73 10.58C759.23 11.08 759.6 11.655 759.84 12.305C760.09 12.945 760.215 13.62 760.215 14.33V14.66C760.215 15.32 760.09 15.975 759.84 16.625C759.6 17.265 759.23 17.845 758.73 18.365C758.23 18.875 757.61 19.285 756.87 19.595C756.13 19.905 755.265 20.06 754.275 20.06H752.37ZM750.21 20.06V8.96H752.67V20.06H750.21ZM761.929 20V9.05H764.329V20H761.929ZM764.029 20V17.96H768.814V20H764.029ZM764.029 15.455V13.415H768.469V15.455H764.029ZM764.029 11.09V9.05H768.709V11.09H764.029ZM770.835 20V9.05H774.87L778.995 18.005H779.505L779.205 18.275V9.05H781.515V20H777.45L773.325 11.045H772.815L773.115 10.775V20H770.835ZM786.15 20V10.895H788.61V20H786.15ZM783.075 11.195V9.05H791.7V11.195H783.075ZM793.278 20V9.05H795.738V20H793.278ZM800.403 20V10.895H802.863V20H800.403ZM797.328 11.195V9.05H805.953V11.195H797.328ZM809.673 15.845L806.478 9.05H808.998L811.293 14.135L810.858 14H812.118L811.653 14.135L813.723 9.05H816.108L813.168 15.845H809.673ZM810.213 20V15.5H812.628V20H810.213Z" fill="black"></path> <path d="M838.26 20V9.05H840.72V20H838.26ZM845.37 20.06V17.765H847.41C847.92 17.765 848.38 17.69 848.79 17.54C849.2 17.38 849.55 17.16 849.84 16.88C850.13 16.59 850.35 16.245 850.5 15.845C850.65 15.435 850.725 14.985 850.725 14.495C850.725 13.985 850.65 13.53 850.5 13.13C850.35 12.73 850.13 12.39 849.84 12.11C849.55 11.83 849.2 11.62 848.79 11.48C848.38 11.33 847.92 11.255 847.41 11.255H845.37V8.96H847.275C848.265 8.96 849.13 9.105 849.87 9.395C850.61 9.685 851.23 10.08 851.73 10.58C852.23 11.08 852.6 11.655 852.84 12.305C853.09 12.945 853.215 13.62 853.215 14.33V14.66C853.215 15.32 853.09 15.975 852.84 16.625C852.6 17.265 852.23 17.845 851.73 18.365C851.23 18.875 850.61 19.285 849.87 19.595C849.13 19.905 848.265 20.06 847.275 20.06H845.37ZM843.21 20.06V8.96H845.67V20.06H843.21ZM854.929 20V9.05H857.329V20H854.929ZM857.029 20V17.96H861.814V20H857.029ZM857.029 15.455V13.415H861.469V15.455H857.029ZM857.029 11.09V9.05H861.709V11.09H857.029ZM863.835 20V9.05H867.87L871.995 18.005H872.505L872.205 18.275V9.05H874.515V20H870.45L866.325 11.045H865.815L866.115 10.775V20H863.835ZM879.15 20V10.895H881.61V20H879.15ZM876.075 11.195V9.05H884.7V11.195H876.075ZM886.278 20V9.05H888.738V20H886.278ZM893.403 20V10.895H895.863V20H893.403ZM890.328 11.195V9.05H898.953V11.195H890.328ZM902.673 15.845L899.478 9.05H901.998L904.293 14.135L903.858 14H905.118L904.653 14.135L906.723 9.05H909.108L906.168 15.845H902.673ZM903.213 20V15.5H905.628V20H903.213Z" fill="black"></path> <path d="M931.26 20V9.05H933.72V20H931.26ZM938.37 20.06V17.765H940.41C940.92 17.765 941.38 17.69 941.79 17.54C942.2 17.38 942.55 17.16 942.84 16.88C943.13 16.59 943.35 16.245 943.5 15.845C943.65 15.435 943.725 14.985 943.725 14.495C943.725 13.985 943.65 13.53 943.5 13.13C943.35 12.73 943.13 12.39 942.84 12.11C942.55 11.83 942.2 11.62 941.79 11.48C941.38 11.33 940.92 11.255 940.41 11.255H938.37V8.96H940.275C941.265 8.96 942.13 9.105 942.87 9.395C943.61 9.685 944.23 10.08 944.73 10.58C945.23 11.08 945.6 11.655 945.84 12.305C946.09 12.945 946.215 13.62 946.215 14.33V14.66C946.215 15.32 946.09 15.975 945.84 16.625C945.6 17.265 945.23 17.845 944.73 18.365C944.23 18.875 943.61 19.285 942.87 19.595C942.13 19.905 941.265 20.06 940.275 20.06H938.37ZM936.21 20.06V8.96H938.67V20.06H936.21ZM947.929 20V9.05H950.329V20H947.929ZM950.029 20V17.96H954.814V20H950.029ZM950.029 15.455V13.415H954.469V15.455H950.029ZM950.029 11.09V9.05H954.709V11.09H950.029ZM956.835 20V9.05H960.87L964.995 18.005H965.505L965.205 18.275V9.05H967.515V20H963.45L959.325 11.045H958.815L959.115 10.775V20H956.835ZM972.15 20V10.895H974.61V20H972.15ZM969.075 11.195V9.05H977.7V11.195H969.075ZM979.278 20V9.05H981.738V20H979.278ZM986.403 20V10.895H988.863V20H986.403ZM983.328 11.195V9.05H991.953V11.195H983.328ZM995.673 15.845L992.478 9.05H994.998L997.293 14.135L996.858 14H998.118L997.653 14.135L999.723 9.05H1002.11L999.168 15.845H995.673ZM996.213 20V15.5H998.628V20H996.213Z" fill="black"></path> <path d="M1024.26 20V9.05H1026.72V20H1024.26ZM1031.37 20.06V17.765H1033.41C1033.92 17.765 1034.38 17.69 1034.79 17.54C1035.2 17.38 1035.55 17.16 1035.84 16.88C1036.13 16.59 1036.35 16.245 1036.5 15.845C1036.65 15.435 1036.73 14.985 1036.73 14.495C1036.73 13.985 1036.65 13.53 1036.5 13.13C1036.35 12.73 1036.13 12.39 1035.84 12.11C1035.55 11.83 1035.2 11.62 1034.79 11.48C1034.38 11.33 1033.92 11.255 1033.41 11.255H1031.37V8.96H1033.28C1034.27 8.96 1035.13 9.105 1035.87 9.395C1036.61 9.685 1037.23 10.08 1037.73 10.58C1038.23 11.08 1038.6 11.655 1038.84 12.305C1039.09 12.945 1039.22 13.62 1039.22 14.33V14.66C1039.22 15.32 1039.09 15.975 1038.84 16.625C1038.6 17.265 1038.23 17.845 1037.73 18.365C1037.23 18.875 1036.61 19.285 1035.87 19.595C1035.13 19.905 1034.27 20.06 1033.28 20.06H1031.37ZM1029.21 20.06V8.96H1031.67V20.06H1029.21ZM1040.93 20V9.05H1043.33V20H1040.93ZM1043.03 20V17.96H1047.81V20H1043.03ZM1043.03 15.455V13.415H1047.47V15.455H1043.03ZM1043.03 11.09V9.05H1047.71V11.09H1043.03ZM1049.84 20V9.05H1053.87L1058 18.005H1058.51L1058.21 18.275V9.05H1060.52V20H1056.45L1052.33 11.045H1051.82L1052.12 10.775V20H1049.84ZM1065.15 20V10.895H1067.61V20H1065.15ZM1062.08 11.195V9.05H1070.7V11.195H1062.08ZM1072.28 20V9.05H1074.74V20H1072.28ZM1079.4 20V10.895H1081.86V20H1079.4ZM1076.33 11.195V9.05H1084.95V11.195H1076.33ZM1088.67 15.845L1085.48 9.05H1088L1090.29 14.135L1089.86 14H1091.12L1090.65 14.135L1092.72 9.05H1095.11L1092.17 15.845H1088.67ZM1089.21 20V15.5H1091.63V20H1089.21Z" fill="black"></path> <path d="M1117.26 20V9.05H1119.72V20H1117.26ZM1124.37 20.06V17.765H1126.41C1126.92 17.765 1127.38 17.69 1127.79 17.54C1128.2 17.38 1128.55 17.16 1128.84 16.88C1129.13 16.59 1129.35 16.245 1129.5 15.845C1129.65 15.435 1129.73 14.985 1129.73 14.495C1129.73 13.985 1129.65 13.53 1129.5 13.13C1129.35 12.73 1129.13 12.39 1128.84 12.11C1128.55 11.83 1128.2 11.62 1127.79 11.48C1127.38 11.33 1126.92 11.255 1126.41 11.255H1124.37V8.96H1126.28C1127.27 8.96 1128.13 9.105 1128.87 9.395C1129.61 9.685 1130.23 10.08 1130.73 10.58C1131.23 11.08 1131.6 11.655 1131.84 12.305C1132.09 12.945 1132.22 13.62 1132.22 14.33V14.66C1132.22 15.32 1132.09 15.975 1131.84 16.625C1131.6 17.265 1131.23 17.845 1130.73 18.365C1130.23 18.875 1129.61 19.285 1128.87 19.595C1128.13 19.905 1127.27 20.06 1126.28 20.06H1124.37ZM1122.21 20.06V8.96H1124.67V20.06H1122.21ZM1133.93 20V9.05H1136.33V20H1133.93ZM1136.03 20V17.96H1140.81V20H1136.03ZM1136.03 15.455V13.415H1140.47V15.455H1136.03ZM1136.03 11.09V9.05H1140.71V11.09H1136.03ZM1142.84 20V9.05H1146.87L1151 18.005H1151.51L1151.21 18.275V9.05H1153.52V20H1149.45L1145.33 11.045H1144.82L1145.12 10.775V20H1142.84ZM1158.15 20V10.895H1160.61V20H1158.15ZM1155.08 11.195V9.05H1163.7V11.195H1155.08ZM1165.28 20V9.05H1167.74V20H1165.28ZM1172.4 20V10.895H1174.86V20H1172.4ZM1169.33 11.195V9.05H1177.95V11.195H1169.33ZM1181.67 15.845L1178.48 9.05H1181L1183.29 14.135L1182.86 14H1184.12L1183.65 14.135L1185.72 9.05H1188.11L1185.17 15.845H1181.67ZM1182.21 20V15.5H1184.63V20H1182.21Z" fill="black"></path> <path d="M1210.26 20V9.05H1212.72V20H1210.26ZM1217.37 20.06V17.765H1219.41C1219.92 17.765 1220.38 17.69 1220.79 17.54C1221.2 17.38 1221.55 17.16 1221.84 16.88C1222.13 16.59 1222.35 16.245 1222.5 15.845C1222.65 15.435 1222.73 14.985 1222.73 14.495C1222.73 13.985 1222.65 13.53 1222.5 13.13C1222.35 12.73 1222.13 12.39 1221.84 12.11C1221.55 11.83 1221.2 11.62 1220.79 11.48C1220.38 11.33 1219.92 11.255 1219.41 11.255H1217.37V8.96H1219.28C1220.27 8.96 1221.13 9.105 1221.87 9.395C1222.61 9.685 1223.23 10.08 1223.73 10.58C1224.23 11.08 1224.6 11.655 1224.84 12.305C1225.09 12.945 1225.22 13.62 1225.22 14.33V14.66C1225.22 15.32 1225.09 15.975 1224.84 16.625C1224.6 17.265 1224.23 17.845 1223.73 18.365C1223.23 18.875 1222.61 19.285 1221.87 19.595C1221.13 19.905 1220.27 20.06 1219.28 20.06H1217.37ZM1215.21 20.06V8.96H1217.67V20.06H1215.21ZM1226.93 20V9.05H1229.33V20H1226.93ZM1229.03 20V17.96H1233.81V20H1229.03ZM1229.03 15.455V13.415H1233.47V15.455H1229.03ZM1229.03 11.09V9.05H1233.71V11.09H1229.03ZM1235.84 20V9.05H1239.87L1244 18.005H1244.51L1244.21 18.275V9.05H1246.52V20H1242.45L1238.33 11.045H1237.82L1238.12 10.775V20H1235.84ZM1251.15 20V10.895H1253.61V20H1251.15ZM1248.08 11.195V9.05H1256.7V11.195H1248.08ZM1258.28 20V9.05H1260.74V20H1258.28ZM1265.4 20V10.895H1267.86V20H1265.4ZM1262.33 11.195V9.05H1270.95V11.195H1262.33ZM1274.67 15.845L1271.48 9.05H1274L1276.29 14.135L1275.86 14H1277.12L1276.65 14.135L1278.72 9.05H1281.11L1278.17 15.845H1274.67ZM1275.21 20V15.5H1277.63V20H1275.21Z" fill="black"></path> <path d="M1303.26 20V9.05H1305.72V20H1303.26ZM1310.37 20.06V17.765H1312.41C1312.92 17.765 1313.38 17.69 1313.79 17.54C1314.2 17.38 1314.55 17.16 1314.84 16.88C1315.13 16.59 1315.35 16.245 1315.5 15.845C1315.65 15.435 1315.73 14.985 1315.73 14.495C1315.73 13.985 1315.65 13.53 1315.5 13.13C1315.35 12.73 1315.13 12.39 1314.84 12.11C1314.55 11.83 1314.2 11.62 1313.79 11.48C1313.38 11.33 1312.92 11.255 1312.41 11.255H1310.37V8.96H1312.28C1313.27 8.96 1314.13 9.105 1314.87 9.395C1315.61 9.685 1316.23 10.08 1316.73 10.58C1317.23 11.08 1317.6 11.655 1317.84 12.305C1318.09 12.945 1318.22 13.62 1318.22 14.33V14.66C1318.22 15.32 1318.09 15.975 1317.84 16.625C1317.6 17.265 1317.23 17.845 1316.73 18.365C1316.23 18.875 1315.61 19.285 1314.87 19.595C1314.13 19.905 1313.27 20.06 1312.28 20.06H1310.37ZM1308.21 20.06V8.96H1310.67V20.06H1308.21ZM1319.93 20V9.05H1322.33V20H1319.93ZM1322.03 20V17.96H1326.81V20H1322.03ZM1322.03 15.455V13.415H1326.47V15.455H1322.03ZM1322.03 11.09V9.05H1326.71V11.09H1322.03ZM1328.84 20V9.05H1332.87L1337 18.005H1337.51L1337.21 18.275V9.05H1339.52V20H1335.45L1331.33 11.045H1330.82L1331.12 10.775V20H1328.84ZM1344.15 20V10.895H1346.61V20H1344.15ZM1341.08 11.195V9.05H1349.7V11.195H1341.08ZM1351.28 20V9.05H1353.74V20H1351.28ZM1358.4 20V10.895H1360.86V20H1358.4ZM1355.33 11.195V9.05H1363.95V11.195H1355.33ZM1367.67 15.845L1364.48 9.05H1367L1369.29 14.135L1368.86 14H1370.12L1369.65 14.135L1371.72 9.05H1374.11L1371.17 15.845H1367.67ZM1368.21 20V15.5H1370.63V20H1368.21Z" fill="black"></path> <path d="M1396.26 20V9.05H1398.72V20H1396.26ZM1403.37 20.06V17.765H1405.41C1405.92 17.765 1406.38 17.69 1406.79 17.54C1407.2 17.38 1407.55 17.16 1407.84 16.88C1408.13 16.59 1408.35 16.245 1408.5 15.845C1408.65 15.435 1408.73 14.985 1408.73 14.495C1408.73 13.985 1408.65 13.53 1408.5 13.13C1408.35 12.73 1408.13 12.39 1407.84 12.11C1407.55 11.83 1407.2 11.62 1406.79 11.48C1406.38 11.33 1405.92 11.255 1405.41 11.255H1403.37V8.96H1405.28C1406.27 8.96 1407.13 9.105 1407.87 9.395C1408.61 9.685 1409.23 10.08 1409.73 10.58C1410.23 11.08 1410.6 11.655 1410.84 12.305C1411.09 12.945 1411.22 13.62 1411.22 14.33V14.66C1411.22 15.32 1411.09 15.975 1410.84 16.625C1410.6 17.265 1410.23 17.845 1409.73 18.365C1409.23 18.875 1408.61 19.285 1407.87 19.595C1407.13 19.905 1406.27 20.06 1405.28 20.06H1403.37ZM1401.21 20.06V8.96H1403.67V20.06H1401.21ZM1412.93 20V9.05H1415.33V20H1412.93ZM1415.03 20V17.96H1419.81V20H1415.03ZM1415.03 15.455V13.415H1419.47V15.455H1415.03ZM1415.03 11.09V9.05H1419.71V11.09H1415.03ZM1421.84 20V9.05H1425.87L1430 18.005H1430.51L1430.21 18.275V9.05H1432.52V20H1428.45L1424.33 11.045H1423.82L1424.12 10.775V20H1421.84ZM1437.15 20V10.895H1439.61V20H1437.15ZM1434.08 11.195V9.05H1442.7V11.195H1434.08ZM1444.28 20V9.05H1446.74V20H1444.28ZM1451.4 20V10.895H1453.86V20H1451.4ZM1448.33 11.195V9.05H1456.95V11.195H1448.33ZM1460.67 15.845L1457.48 9.05H1460L1462.29 14.135L1461.86 14H1463.12L1462.65 14.135L1464.72 9.05H1467.11L1464.17 15.845H1460.67ZM1461.21 20V15.5H1463.63V20H1461.21Z" fill="black"></path> <path d="M1489.26 20V9.05H1491.72V20H1489.26ZM1496.37 20.06V17.765H1498.41C1498.92 17.765 1499.38 17.69 1499.79 17.54C1500.2 17.38 1500.55 17.16 1500.84 16.88C1501.13 16.59 1501.35 16.245 1501.5 15.845C1501.65 15.435 1501.73 14.985 1501.73 14.495C1501.73 13.985 1501.65 13.53 1501.5 13.13C1501.35 12.73 1501.13 12.39 1500.84 12.11C1500.55 11.83 1500.2 11.62 1499.79 11.48C1499.38 11.33 1498.92 11.255 1498.41 11.255H1496.37V8.96H1498.28C1499.27 8.96 1500.13 9.105 1500.87 9.395C1501.61 9.685 1502.23 10.08 1502.73 10.58C1503.23 11.08 1503.6 11.655 1503.84 12.305C1504.09 12.945 1504.22 13.62 1504.22 14.33V14.66C1504.22 15.32 1504.09 15.975 1503.84 16.625C1503.6 17.265 1503.23 17.845 1502.73 18.365C1502.23 18.875 1501.61 19.285 1500.87 19.595C1500.13 19.905 1499.27 20.06 1498.28 20.06H1496.37ZM1494.21 20.06V8.96H1496.67V20.06H1494.21ZM1505.93 20V9.05H1508.33V20H1505.93ZM1508.03 20V17.96H1512.81V20H1508.03ZM1508.03 15.455V13.415H1512.47V15.455H1508.03ZM1508.03 11.09V9.05H1512.71V11.09H1508.03ZM1514.84 20V9.05H1518.87L1523 18.005H1523.51L1523.21 18.275V9.05H1525.52V20H1521.45L1517.33 11.045H1516.82L1517.12 10.775V20H1514.84ZM1530.15 20V10.895H1532.61V20H1530.15ZM1527.08 11.195V9.05H1535.7V11.195H1527.08ZM1537.28 20V9.05H1539.74V20H1537.28ZM1544.4 20V10.895H1546.86V20H1544.4ZM1541.33 11.195V9.05H1549.95V11.195H1541.33ZM1553.67 15.845L1550.48 9.05H1553L1555.29 14.135L1554.86 14H1556.12L1555.65 14.135L1557.72 9.05H1560.11L1557.17 15.845H1553.67ZM1554.21 20V15.5H1556.63V20H1554.21Z" fill="black"></path> <path d="M1582.26 20V9.05H1584.72V20H1582.26ZM1589.37 20.06V17.765H1591.41C1591.92 17.765 1592.38 17.69 1592.79 17.54C1593.2 17.38 1593.55 17.16 1593.84 16.88C1594.13 16.59 1594.35 16.245 1594.5 15.845C1594.65 15.435 1594.73 14.985 1594.73 14.495C1594.73 13.985 1594.65 13.53 1594.5 13.13C1594.35 12.73 1594.13 12.39 1593.84 12.11C1593.55 11.83 1593.2 11.62 1592.79 11.48C1592.38 11.33 1591.92 11.255 1591.41 11.255H1589.37V8.96H1591.28C1592.27 8.96 1593.13 9.105 1593.87 9.395C1594.61 9.685 1595.23 10.08 1595.73 10.58C1596.23 11.08 1596.6 11.655 1596.84 12.305C1597.09 12.945 1597.22 13.62 1597.22 14.33V14.66C1597.22 15.32 1597.09 15.975 1596.84 16.625C1596.6 17.265 1596.23 17.845 1595.73 18.365C1595.23 18.875 1594.61 19.285 1593.87 19.595C1593.13 19.905 1592.27 20.06 1591.28 20.06H1589.37ZM1587.21 20.06V8.96H1589.67V20.06H1587.21ZM1598.93 20V9.05H1601.33V20H1598.93ZM1601.03 20V17.96H1605.81V20H1601.03ZM1601.03 15.455V13.415H1605.47V15.455H1601.03ZM1601.03 11.09V9.05H1605.71V11.09H1601.03ZM1607.84 20V9.05H1611.87L1616 18.005H1616.51L1616.21 18.275V9.05H1618.52V20H1614.45L1610.33 11.045H1609.82L1610.12 10.775V20H1607.84ZM1623.15 20V10.895H1625.61V20H1623.15ZM1620.08 11.195V9.05H1628.7V11.195H1620.08ZM1630.28 20V9.05H1632.74V20H1630.28ZM1637.4 20V10.895H1639.86V20H1637.4ZM1634.33 11.195V9.05H1642.95V11.195H1634.33ZM1646.67 15.845L1643.48 9.05H1646L1648.29 14.135L1647.86 14H1649.12L1648.65 14.135L1650.72 9.05H1653.11L1650.17 15.845H1646.67ZM1647.21 20V15.5H1649.63V20H1647.21Z" fill="black"></path> <path d="M1675.26 20V9.05H1677.72V20H1675.26ZM1682.37 20.06V17.765H1684.41C1684.92 17.765 1685.38 17.69 1685.79 17.54C1686.2 17.38 1686.55 17.16 1686.84 16.88C1687.13 16.59 1687.35 16.245 1687.5 15.845C1687.65 15.435 1687.73 14.985 1687.73 14.495C1687.73 13.985 1687.65 13.53 1687.5 13.13C1687.35 12.73 1687.13 12.39 1686.84 12.11C1686.55 11.83 1686.2 11.62 1685.79 11.48C1685.38 11.33 1684.92 11.255 1684.41 11.255H1682.37V8.96H1684.28C1685.27 8.96 1686.13 9.105 1686.87 9.395C1687.61 9.685 1688.23 10.08 1688.73 10.58C1689.23 11.08 1689.6 11.655 1689.84 12.305C1690.09 12.945 1690.22 13.62 1690.22 14.33V14.66C1690.22 15.32 1690.09 15.975 1689.84 16.625C1689.6 17.265 1689.23 17.845 1688.73 18.365C1688.23 18.875 1687.61 19.285 1686.87 19.595C1686.13 19.905 1685.27 20.06 1684.28 20.06H1682.37ZM1680.21 20.06V8.96H1682.67V20.06H1680.21ZM1691.93 20V9.05H1694.33V20H1691.93ZM1694.03 20V17.96H1698.81V20H1694.03ZM1694.03 15.455V13.415H1698.47V15.455H1694.03ZM1694.03 11.09V9.05H1698.71V11.09H1694.03ZM1700.84 20V9.05H1704.87L1709 18.005H1709.51L1709.21 18.275V9.05H1711.52V20H1707.45L1703.33 11.045H1702.82L1703.12 10.775V20H1700.84ZM1716.15 20V10.895H1718.61V20H1716.15ZM1713.08 11.195V9.05H1721.7V11.195H1713.08ZM1723.28 20V9.05H1725.74V20H1723.28ZM1730.4 20V10.895H1732.86V20H1730.4ZM1727.33 11.195V9.05H1735.95V11.195H1727.33ZM1739.67 15.845L1736.48 9.05H1739L1741.29 14.135L1740.86 14H1742.12L1741.65 14.135L1743.72 9.05H1746.11L1743.17 15.845H1739.67ZM1740.21 20V15.5H1742.63V20H1740.21Z" fill="black"></path> <path d="M1768.26 20V9.05H1770.72V20H1768.26ZM1775.37 20.06V17.765H1777.41C1777.92 17.765 1778.38 17.69 1778.79 17.54C1779.2 17.38 1779.55 17.16 1779.84 16.88C1780.13 16.59 1780.35 16.245 1780.5 15.845C1780.65 15.435 1780.73 14.985 1780.73 14.495C1780.73 13.985 1780.65 13.53 1780.5 13.13C1780.35 12.73 1780.13 12.39 1779.84 12.11C1779.55 11.83 1779.2 11.62 1778.79 11.48C1778.38 11.33 1777.92 11.255 1777.41 11.255H1775.37V8.96H1777.28C1778.27 8.96 1779.13 9.105 1779.87 9.395C1780.61 9.685 1781.23 10.08 1781.73 10.58C1782.23 11.08 1782.6 11.655 1782.84 12.305C1783.09 12.945 1783.22 13.62 1783.22 14.33V14.66C1783.22 15.32 1783.09 15.975 1782.84 16.625C1782.6 17.265 1782.23 17.845 1781.73 18.365C1781.23 18.875 1780.61 19.285 1779.87 19.595C1779.13 19.905 1778.27 20.06 1777.28 20.06H1775.37ZM1773.21 20.06V8.96H1775.67V20.06H1773.21ZM1784.93 20V9.05H1787.33V20H1784.93ZM1787.03 20V17.96H1791.81V20H1787.03ZM1787.03 15.455V13.415H1791.47V15.455H1787.03ZM1787.03 11.09V9.05H1791.71V11.09H1787.03ZM1793.84 20V9.05H1797.87L1802 18.005H1802.51L1802.21 18.275V9.05H1804.52V20H1800.45L1796.33 11.045H1795.82L1796.12 10.775V20H1793.84ZM1809.15 20V10.895H1811.61V20H1809.15ZM1806.08 11.195V9.05H1814.7V11.195H1806.08ZM1816.28 20V9.05H1818.74V20H1816.28ZM1823.4 20V10.895H1825.86V20H1823.4ZM1820.33 11.195V9.05H1828.95V11.195H1820.33ZM1832.67 15.845L1829.48 9.05H1832L1834.29 14.135L1833.86 14H1835.12L1834.65 14.135L1836.72 9.05H1839.11L1836.17 15.845H1832.67ZM1833.21 20V15.5H1835.63V20H1833.21Z" fill="black"></path> <path d="M1861.26 20V9.05H1863.72V20H1861.26ZM1868.37 20.06V17.765H1870.41C1870.92 17.765 1871.38 17.69 1871.79 17.54C1872.2 17.38 1872.55 17.16 1872.84 16.88C1873.13 16.59 1873.35 16.245 1873.5 15.845C1873.65 15.435 1873.73 14.985 1873.73 14.495C1873.73 13.985 1873.65 13.53 1873.5 13.13C1873.35 12.73 1873.13 12.39 1872.84 12.11C1872.55 11.83 1872.2 11.62 1871.79 11.48C1871.38 11.33 1870.92 11.255 1870.41 11.255H1868.37V8.96H1870.28C1871.27 8.96 1872.13 9.105 1872.87 9.395C1873.61 9.685 1874.23 10.08 1874.73 10.58C1875.23 11.08 1875.6 11.655 1875.84 12.305C1876.09 12.945 1876.22 13.62 1876.22 14.33V14.66C1876.22 15.32 1876.09 15.975 1875.84 16.625C1875.6 17.265 1875.23 17.845 1874.73 18.365C1874.23 18.875 1873.61 19.285 1872.87 19.595C1872.13 19.905 1871.27 20.06 1870.28 20.06H1868.37ZM1866.21 20.06V8.96H1868.67V20.06H1866.21ZM1877.93 20V9.05H1880.33V20H1877.93ZM1880.03 20V17.96H1884.81V20H1880.03ZM1880.03 15.455V13.415H1884.47V15.455H1880.03ZM1880.03 11.09V9.05H1884.71V11.09H1880.03ZM1886.84 20V9.05H1890.87L1895 18.005H1895.51L1895.21 18.275V9.05H1897.52V20H1893.45L1889.33 11.045H1888.82L1889.12 10.775V20H1886.84ZM1902.15 20V10.895H1904.61V20H1902.15ZM1899.08 11.195V9.05H1907.7V11.195H1899.08ZM1909.28 20V9.05H1911.74V20H1909.28ZM1916.4 20V10.895H1918.86V20H1916.4ZM1913.33 11.195V9.05H1921.95V11.195H1913.33ZM1925.67 15.845L1922.48 9.05H1925L1927.29 14.135L1926.86 14H1928.12L1927.65 14.135L1929.72 9.05H1932.11L1929.17 15.845H1925.67ZM1926.21 20V15.5H1928.63V20H1926.21Z" fill="black"></path> <path d="M1954.26 20V9.05H1956.72V20H1954.26ZM1961.37 20.06V17.765H1963.41C1963.92 17.765 1964.38 17.69 1964.79 17.54C1965.2 17.38 1965.55 17.16 1965.84 16.88C1966.13 16.59 1966.35 16.245 1966.5 15.845C1966.65 15.435 1966.73 14.985 1966.73 14.495C1966.73 13.985 1966.65 13.53 1966.5 13.13C1966.35 12.73 1966.13 12.39 1965.84 12.11C1965.55 11.83 1965.2 11.62 1964.79 11.48C1964.38 11.33 1963.92 11.255 1963.41 11.255H1961.37V8.96H1963.28C1964.27 8.96 1965.13 9.105 1965.87 9.395C1966.61 9.685 1967.23 10.08 1967.73 10.58C1968.23 11.08 1968.6 11.655 1968.84 12.305C1969.09 12.945 1969.22 13.62 1969.22 14.33V14.66C1969.22 15.32 1969.09 15.975 1968.84 16.625C1968.6 17.265 1968.23 17.845 1967.73 18.365C1967.23 18.875 1966.61 19.285 1965.87 19.595C1965.13 19.905 1964.27 20.06 1963.28 20.06H1961.37ZM1959.21 20.06V8.96H1961.67V20.06H1959.21ZM1970.93 20V9.05H1973.33V20H1970.93ZM1973.03 20V17.96H1977.81V20H1973.03ZM1973.03 15.455V13.415H1977.47V15.455H1973.03ZM1973.03 11.09V9.05H1977.71V11.09H1973.03ZM1979.84 20V9.05H1983.87L1988 18.005H1988.51L1988.21 18.275V9.05H1990.52V20H1986.45L1982.33 11.045H1981.82L1982.12 10.775V20H1979.84ZM1995.15 20V10.895H1997.61V20H1995.15ZM1992.08 11.195V9.05H2000.7V11.195H1992.08ZM2002.28 20V9.05H2004.74V20H2002.28ZM2009.4 20V10.895H2011.86V20H2009.4ZM2006.33 11.195V9.05H2014.95V11.195H2006.33ZM2018.67 15.845L2015.48 9.05H2018L2020.29 14.135L2019.86 14H2021.12L2020.65 14.135L2022.72 9.05H2025.11L2022.17 15.845H2018.67ZM2019.21 20V15.5H2021.63V20H2019.21Z" fill="black"></path> <path d="M2047.26 20V9.05H2049.72V20H2047.26ZM2054.37 20.06V17.765H2056.41C2056.92 17.765 2057.38 17.69 2057.79 17.54C2058.2 17.38 2058.55 17.16 2058.84 16.88C2059.13 16.59 2059.35 16.245 2059.5 15.845C2059.65 15.435 2059.73 14.985 2059.73 14.495C2059.73 13.985 2059.65 13.53 2059.5 13.13C2059.35 12.73 2059.13 12.39 2058.84 12.11C2058.55 11.83 2058.2 11.62 2057.79 11.48C2057.38 11.33 2056.92 11.255 2056.41 11.255H2054.37V8.96H2056.28C2057.27 8.96 2058.13 9.105 2058.87 9.395C2059.61 9.685 2060.23 10.08 2060.73 10.58C2061.23 11.08 2061.6 11.655 2061.84 12.305C2062.09 12.945 2062.22 13.62 2062.22 14.33V14.66C2062.22 15.32 2062.09 15.975 2061.84 16.625C2061.6 17.265 2061.23 17.845 2060.73 18.365C2060.23 18.875 2059.61 19.285 2058.87 19.595C2058.13 19.905 2057.27 20.06 2056.28 20.06H2054.37ZM2052.21 20.06V8.96H2054.67V20.06H2052.21ZM2063.93 20V9.05H2066.33V20H2063.93ZM2066.03 20V17.96H2070.81V20H2066.03ZM2066.03 15.455V13.415H2070.47V15.455H2066.03ZM2066.03 11.09V9.05H2070.71V11.09H2066.03ZM2072.84 20V9.05H2076.87L2081 18.005H2081.51L2081.21 18.275V9.05H2083.52V20H2079.45L2075.33 11.045H2074.82L2075.12 10.775V20H2072.84ZM2088.15 20V10.895H2090.61V20H2088.15ZM2085.08 11.195V9.05H2093.7V11.195H2085.08ZM2095.28 20V9.05H2097.74V20H2095.28ZM2102.4 20V10.895H2104.86V20H2102.4ZM2099.33 11.195V9.05H2107.95V11.195H2099.33ZM2111.67 15.845L2108.48 9.05H2111L2113.29 14.135L2112.86 14H2114.12L2113.65 14.135L2115.72 9.05H2118.11L2115.17 15.845H2111.67ZM2112.21 20V15.5H2114.63V20H2112.21Z" fill="black"></path> <path d="M2140.26 20V9.05H2142.72V20H2140.26ZM2147.37 20.06V17.765H2149.41C2149.92 17.765 2150.38 17.69 2150.79 17.54C2151.2 17.38 2151.55 17.16 2151.84 16.88C2152.13 16.59 2152.35 16.245 2152.5 15.845C2152.65 15.435 2152.73 14.985 2152.73 14.495C2152.73 13.985 2152.65 13.53 2152.5 13.13C2152.35 12.73 2152.13 12.39 2151.84 12.11C2151.55 11.83 2151.2 11.62 2150.79 11.48C2150.38 11.33 2149.92 11.255 2149.41 11.255H2147.37V8.96H2149.28C2150.27 8.96 2151.13 9.105 2151.87 9.395C2152.61 9.685 2153.23 10.08 2153.73 10.58C2154.23 11.08 2154.6 11.655 2154.84 12.305C2155.09 12.945 2155.22 13.62 2155.22 14.33V14.66C2155.22 15.32 2155.09 15.975 2154.84 16.625C2154.6 17.265 2154.23 17.845 2153.73 18.365C2153.23 18.875 2152.61 19.285 2151.87 19.595C2151.13 19.905 2150.27 20.06 2149.28 20.06H2147.37ZM2145.21 20.06V8.96H2147.67V20.06H2145.21ZM2156.93 20V9.05H2159.33V20H2156.93ZM2159.03 20V17.96H2163.81V20H2159.03ZM2159.03 15.455V13.415H2163.47V15.455H2159.03ZM2159.03 11.09V9.05H2163.71V11.09H2159.03ZM2165.84 20V9.05H2169.87L2174 18.005H2174.51L2174.21 18.275V9.05H2176.52V20H2172.45L2168.33 11.045H2167.82L2168.12 10.775V20H2165.84ZM2181.15 20V10.895H2183.61V20H2181.15ZM2178.08 11.195V9.05H2186.7V11.195H2178.08ZM2188.28 20V9.05H2190.74V20H2188.28ZM2195.4 20V10.895H2197.86V20H2195.4ZM2192.33 11.195V9.05H2200.95V11.195H2192.33ZM2204.67 15.845L2201.48 9.05H2204L2206.29 14.135L2205.86 14H2207.12L2206.65 14.135L2208.72 9.05H2211.11L2208.17 15.845H2204.67ZM2205.21 20V15.5H2207.63V20H2205.21Z" fill="black"></path> <path d="M2233.26 20V9.05H2235.72V20H2233.26ZM2240.37 20.06V17.765H2242.41C2242.92 17.765 2243.38 17.69 2243.79 17.54C2244.2 17.38 2244.55 17.16 2244.84 16.88C2245.13 16.59 2245.35 16.245 2245.5 15.845C2245.65 15.435 2245.73 14.985 2245.73 14.495C2245.73 13.985 2245.65 13.53 2245.5 13.13C2245.35 12.73 2245.13 12.39 2244.84 12.11C2244.55 11.83 2244.2 11.62 2243.79 11.48C2243.38 11.33 2242.92 11.255 2242.41 11.255H2240.37V8.96H2242.28C2243.27 8.96 2244.13 9.105 2244.87 9.395C2245.61 9.685 2246.23 10.08 2246.73 10.58C2247.23 11.08 2247.6 11.655 2247.84 12.305C2248.09 12.945 2248.22 13.62 2248.22 14.33V14.66C2248.22 15.32 2248.09 15.975 2247.84 16.625C2247.6 17.265 2247.23 17.845 2246.73 18.365C2246.23 18.875 2245.61 19.285 2244.87 19.595C2244.13 19.905 2243.27 20.06 2242.28 20.06H2240.37ZM2238.21 20.06V8.96H2240.67V20.06H2238.21ZM2249.93 20V9.05H2252.33V20H2249.93ZM2252.03 20V17.96H2256.81V20H2252.03ZM2252.03 15.455V13.415H2256.47V15.455H2252.03ZM2252.03 11.09V9.05H2256.71V11.09H2252.03ZM2258.84 20V9.05H2262.87L2267 18.005H2267.51L2267.21 18.275V9.05H2269.52V20H2265.45L2261.33 11.045H2260.82L2261.12 10.775V20H2258.84ZM2274.15 20V10.895H2276.61V20H2274.15ZM2271.08 11.195V9.05H2279.7V11.195H2271.08ZM2281.28 20V9.05H2283.74V20H2281.28ZM2288.4 20V10.895H2290.86V20H2288.4ZM2285.33 11.195V9.05H2293.95V11.195H2285.33ZM2297.67 15.845L2294.48 9.05H2297L2299.29 14.135L2298.86 14H2300.12L2299.65 14.135L2301.72 9.05H2304.11L2301.17 15.845H2297.67ZM2298.21 20V15.5H2300.63V20H2298.21Z" fill="black"></path> <path d="M2326.26 20V9.05H2328.72V20H2326.26ZM2333.37 20.06V17.765H2335.41C2335.92 17.765 2336.38 17.69 2336.79 17.54C2337.2 17.38 2337.55 17.16 2337.84 16.88C2338.13 16.59 2338.35 16.245 2338.5 15.845C2338.65 15.435 2338.73 14.985 2338.73 14.495C2338.73 13.985 2338.65 13.53 2338.5 13.13C2338.35 12.73 2338.13 12.39 2337.84 12.11C2337.55 11.83 2337.2 11.62 2336.79 11.48C2336.38 11.33 2335.92 11.255 2335.41 11.255H2333.37V8.96H2335.28C2336.27 8.96 2337.13 9.105 2337.87 9.395C2338.61 9.685 2339.23 10.08 2339.73 10.58C2340.23 11.08 2340.6 11.655 2340.84 12.305C2341.09 12.945 2341.22 13.62 2341.22 14.33V14.66C2341.22 15.32 2341.09 15.975 2340.84 16.625C2340.6 17.265 2340.23 17.845 2339.73 18.365C2339.23 18.875 2338.61 19.285 2337.87 19.595C2337.13 19.905 2336.27 20.06 2335.28 20.06H2333.37ZM2331.21 20.06V8.96H2333.67V20.06H2331.21ZM2342.93 20V9.05H2345.33V20H2342.93ZM2345.03 20V17.96H2349.81V20H2345.03ZM2345.03 15.455V13.415H2349.47V15.455H2345.03ZM2345.03 11.09V9.05H2349.71V11.09H2345.03ZM2351.84 20V9.05H2355.87L2360 18.005H2360.51L2360.21 18.275V9.05H2362.52V20H2358.45L2354.33 11.045H2353.82L2354.12 10.775V20H2351.84ZM2367.15 20V10.895H2369.61V20H2367.15ZM2364.08 11.195V9.05H2372.7V11.195H2364.08ZM2374.28 20V9.05H2376.74V20H2374.28ZM2381.4 20V10.895H2383.86V20H2381.4ZM2378.33 11.195V9.05H2386.95V11.195H2378.33ZM2390.67 15.845L2387.48 9.05H2390L2392.29 14.135L2391.86 14H2393.12L2392.65 14.135L2394.72 9.05H2397.11L2394.17 15.845H2390.67ZM2391.21 20V15.5H2393.63V20H2391.21Z" fill="black"></path> </svg> 