<?xml version="1.0" encoding="UTF-8"?> <svg xmlns="http://www.w3.org/2000/svg" width="126" height="16" viewBox="0 0 126 16" fill="none"> <path d="M3.96 12L0.33 1.05H2.175L5.325 10.785L4.665 10.455H6.375L5.655 10.785L8.565 1.05H10.365L6.975 12H3.96ZM16.5947 12V9.585H16.3097V6.855C16.3097 6.355 16.1797 5.975 15.9197 5.715C15.6597 5.455 15.2747 5.325 14.7647 5.325C14.4847 5.325 14.1747 5.33 13.8347 5.34C13.4947 5.35 13.1597 5.365 12.8297 5.385C12.5097 5.395 12.2247 5.41 11.9747 5.43V3.915C12.1947 3.895 12.4347 3.88 12.6947 3.87C12.9647 3.85 13.2397 3.835 13.5197 3.825C13.8097 3.815 14.0847 3.81 14.3447 3.81C15.1647 3.81 15.8447 3.915 16.3847 4.125C16.9247 4.335 17.3247 4.67 17.5847 5.13C17.8547 5.58 17.9897 6.185 17.9897 6.945V12H16.5947ZM13.9697 12.21C13.3797 12.21 12.8647 12.11 12.4247 11.91C11.9847 11.7 11.6447 11.4 11.4047 11.01C11.1647 10.61 11.0447 10.135 11.0447 9.585C11.0447 9.005 11.1797 8.525 11.4497 8.145C11.7297 7.765 12.1247 7.48 12.6347 7.29C13.1447 7.1 13.7547 7.005 14.4647 7.005H16.4897V8.16H14.4197C13.8897 8.16 13.4847 8.29 13.2047 8.55C12.9247 8.8 12.7847 9.13 12.7847 9.54C12.7847 9.95 12.9247 10.28 13.2047 10.53C13.4847 10.77 13.8897 10.89 14.4197 10.89C14.7297 10.89 15.0247 10.835 15.3047 10.725C15.5847 10.605 15.8147 10.41 15.9947 10.14C16.1847 9.87 16.2897 9.49 16.3097 9L16.7597 9.585C16.7097 10.155 16.5697 10.635 16.3397 11.025C16.1197 11.405 15.8097 11.7 15.4097 11.91C15.0197 12.11 14.5397 12.21 13.9697 12.21ZM23.2255 12.24C22.1355 12.24 21.2855 12.01 20.6755 11.55C20.0755 11.09 19.7605 10.455 19.7305 9.645H21.3505C21.3705 9.945 21.5255 10.22 21.8155 10.47C22.1055 10.72 22.5805 10.845 23.2405 10.845C23.8005 10.845 24.2405 10.735 24.5605 10.515C24.8805 10.295 25.0405 10.02 25.0405 9.69C25.0405 9.39 24.9205 9.155 24.6805 8.985C24.4505 8.805 24.0555 8.685 23.4955 8.625L22.7005 8.55C21.8705 8.46 21.2105 8.215 20.7205 7.815C20.2405 7.415 20.0005 6.875 20.0005 6.195C20.0005 5.655 20.1355 5.2 20.4055 4.83C20.6755 4.46 21.0455 4.175 21.5155 3.975C21.9955 3.775 22.5455 3.675 23.1655 3.675C24.1255 3.675 24.9005 3.89 25.4905 4.32C26.0805 4.74 26.3855 5.36 26.4055 6.18H24.8005C24.7805 5.87 24.6355 5.61 24.3655 5.4C24.0955 5.19 23.6955 5.085 23.1655 5.085C22.6655 5.085 22.2805 5.185 22.0105 5.385C21.7505 5.585 21.6205 5.84 21.6205 6.15C21.6205 6.43 21.7205 6.65 21.9205 6.81C22.1205 6.97 22.4455 7.075 22.8955 7.125L23.6905 7.2C24.6005 7.3 25.3205 7.555 25.8505 7.965C26.3905 8.365 26.6605 8.925 26.6605 9.645C26.6605 10.165 26.5155 10.62 26.2255 11.01C25.9355 11.4 25.5305 11.705 25.0105 11.925C24.5005 12.135 23.9055 12.24 23.2255 12.24ZM28.1314 15.165V13.62H29.4664C29.7764 13.62 30.0414 13.58 30.2614 13.5C30.4814 13.43 30.6614 13.3 30.8014 13.11C30.9414 12.93 31.0564 12.685 31.1464 12.375L33.5014 3.915H35.1964L32.6464 12.795C32.4864 13.355 32.2614 13.81 31.9714 14.16C31.6914 14.51 31.3314 14.765 30.8914 14.925C30.4614 15.085 29.9414 15.165 29.3314 15.165H28.1314ZM30.6214 11.82V10.395H32.3614V11.82H30.6214ZM30.1864 11.82L27.4414 3.915H29.2264L31.8514 11.82H30.1864ZM41.6435 12V9.585H41.3585V6.855C41.3585 6.355 41.2285 5.975 40.9685 5.715C40.7085 5.455 40.3235 5.325 39.8135 5.325C39.5335 5.325 39.2235 5.33 38.8835 5.34C38.5435 5.35 38.2085 5.365 37.8785 5.385C37.5585 5.395 37.2735 5.41 37.0235 5.43V3.915C37.2435 3.895 37.4835 3.88 37.7435 3.87C38.0135 3.85 38.2885 3.835 38.5685 3.825C38.8585 3.815 39.1335 3.81 39.3935 3.81C40.2135 3.81 40.8935 3.915 41.4335 4.125C41.9735 4.335 42.3735 4.67 42.6335 5.13C42.9035 5.58 43.0385 6.185 43.0385 6.945V12H41.6435ZM39.0185 12.21C38.4285 12.21 37.9135 12.11 37.4735 11.91C37.0335 11.7 36.6935 11.4 36.4535 11.01C36.2135 10.61 36.0935 10.135 36.0935 9.585C36.0935 9.005 36.2285 8.525 36.4985 8.145C36.7785 7.765 37.1735 7.48 37.6835 7.29C38.1935 7.1 38.8035 7.005 39.5135 7.005H41.5385V8.16H39.4685C38.9385 8.16 38.5335 8.29 38.2535 8.55C37.9735 8.8 37.8335 9.13 37.8335 9.54C37.8335 9.95 37.9735 10.28 38.2535 10.53C38.5335 10.77 38.9385 10.89 39.4685 10.89C39.7785 10.89 40.0735 10.835 40.3535 10.725C40.6335 10.605 40.8635 10.41 41.0435 10.14C41.2335 9.87 41.3385 9.49 41.3585 9L41.8085 9.585C41.7585 10.155 41.6185 10.635 41.3885 11.025C41.1685 11.405 40.8585 11.7 40.4585 11.91C40.0685 12.11 39.5885 12.21 39.0185 12.21ZM48.9895 12V1.05H51.4195L54.4195 7.965H54.6745L57.6445 1.05H60.1045V12H58.3195V2.655L58.4995 2.685L55.4695 9.75H53.4895L50.4295 2.685L50.6395 2.655V12H48.9895ZM63.2474 12V3.915H65.0024V12H63.2474ZM62.0624 5.265V3.915H65.0024V5.265H62.0624ZM63.8174 2.79C63.4574 2.79 63.1874 2.695 63.0074 2.505C62.8374 2.315 62.7524 2.07 62.7524 1.77C62.7524 1.48 62.8374 1.24 63.0074 1.05C63.1874 0.849999 63.4574 0.749999 63.8174 0.749999C64.1874 0.749999 64.4574 0.849999 64.6274 1.05C64.8074 1.24 64.8974 1.48 64.8974 1.77C64.8974 2.07 64.8074 2.315 64.6274 2.505C64.4574 2.695 64.1874 2.79 63.8174 2.79ZM67.7081 12V1.05H69.4781V12H67.7081ZM66.6431 2.4V1.05H69.4781V2.4H66.6431ZM75.8516 12.27C75.1416 12.27 74.5166 12.155 73.9766 11.925C73.4366 11.685 72.9816 11.37 72.6116 10.98C72.2416 10.59 71.9616 10.15 71.7716 9.66C71.5816 9.16 71.4866 8.645 71.4866 8.115V7.815C71.4866 7.285 71.5816 6.77 71.7716 6.27C71.9716 5.77 72.2566 5.325 72.6266 4.935C73.0066 4.535 73.4666 4.22 74.0066 3.99C74.5466 3.76 75.1616 3.645 75.8516 3.645C76.5416 3.645 77.1516 3.76 77.6816 3.99C78.2216 4.22 78.6816 4.535 79.0616 4.935C79.4416 5.325 79.7266 5.77 79.9166 6.27C80.1166 6.77 80.2166 7.285 80.2166 7.815V8.115C80.2166 8.645 80.1216 9.16 79.9316 9.66C79.7416 10.15 79.4616 10.59 79.0916 10.98C78.7216 11.37 78.2666 11.685 77.7266 11.925C77.1866 12.155 76.5616 12.27 75.8516 12.27ZM75.8516 10.74C76.4016 10.74 76.8716 10.62 77.2616 10.38C77.6516 10.13 77.9466 9.795 78.1466 9.375C78.3566 8.955 78.4616 8.485 78.4616 7.965C78.4616 7.435 78.3566 6.96 78.1466 6.54C77.9366 6.12 77.6366 5.79 77.2466 5.55C76.8566 5.3 76.3916 5.175 75.8516 5.175C75.3116 5.175 74.8466 5.3 74.4566 5.55C74.0666 5.79 73.7666 6.12 73.5566 6.54C73.3466 6.96 73.2416 7.435 73.2416 7.965C73.2416 8.485 73.3416 8.955 73.5416 9.375C73.7516 9.795 74.0516 10.13 74.4416 10.38C74.8316 10.62 75.3016 10.74 75.8516 10.74ZM83.7265 12L81.0865 3.915H82.9165L85.4665 12H83.7265ZM84.2215 12V10.575H86.1865V12H84.2215ZM84.9715 12L87.1915 3.915H88.9015L86.6065 12H84.9715ZM95.4472 12V9.585H95.1622V6.855C95.1622 6.355 95.0322 5.975 94.7722 5.715C94.5122 5.455 94.1272 5.325 93.6172 5.325C93.3372 5.325 93.0272 5.33 92.6872 5.34C92.3472 5.35 92.0122 5.365 91.6822 5.385C91.3622 5.395 91.0772 5.41 90.8272 5.43V3.915C91.0472 3.895 91.2872 3.88 91.5472 3.87C91.8172 3.85 92.0922 3.835 92.3722 3.825C92.6622 3.815 92.9372 3.81 93.1972 3.81C94.0172 3.81 94.6972 3.915 95.2372 4.125C95.7772 4.335 96.1772 4.67 96.4372 5.13C96.7072 5.58 96.8422 6.185 96.8422 6.945V12H95.4472ZM92.8222 12.21C92.2322 12.21 91.7172 12.11 91.2772 11.91C90.8372 11.7 90.4972 11.4 90.2572 11.01C90.0172 10.61 89.8972 10.135 89.8972 9.585C89.8972 9.005 90.0322 8.525 90.3022 8.145C90.5822 7.765 90.9772 7.48 91.4872 7.29C91.9972 7.1 92.6072 7.005 93.3172 7.005H95.3422V8.16H93.2722C92.7422 8.16 92.3372 8.29 92.0572 8.55C91.7772 8.8 91.6372 9.13 91.6372 9.54C91.6372 9.95 91.7772 10.28 92.0572 10.53C92.3372 10.77 92.7422 10.89 93.2722 10.89C93.5822 10.89 93.8772 10.835 94.1572 10.725C94.4372 10.605 94.6672 10.41 94.8472 10.14C95.0372 9.87 95.1422 9.49 95.1622 9L95.6122 9.585C95.5622 10.155 95.4222 10.635 95.1922 11.025C94.9722 11.405 94.6622 11.7 94.2622 11.91C93.8722 12.11 93.3922 12.21 92.8222 12.21ZM99.288 12V3.915H100.683V7.38H100.518C100.518 6.58 100.623 5.905 100.833 5.355C101.053 4.805 101.383 4.39 101.823 4.11C102.263 3.82 102.808 3.675 103.458 3.675H103.533C104.533 3.675 105.278 3.99 105.768 4.62C106.258 5.25 106.503 6.17 106.503 7.38V12H104.748V7.14C104.748 6.58 104.588 6.13 104.268 5.79C103.948 5.44 103.508 5.265 102.948 5.265C102.378 5.265 101.918 5.445 101.568 5.805C101.218 6.155 101.043 6.625 101.043 7.215V12H99.288ZM112.736 12.27C112.026 12.27 111.401 12.155 110.861 11.925C110.321 11.685 109.866 11.37 109.496 10.98C109.126 10.59 108.846 10.15 108.656 9.66C108.466 9.16 108.371 8.645 108.371 8.115V7.815C108.371 7.285 108.466 6.77 108.656 6.27C108.856 5.77 109.141 5.325 109.511 4.935C109.891 4.535 110.351 4.22 110.891 3.99C111.431 3.76 112.046 3.645 112.736 3.645C113.426 3.645 114.036 3.76 114.566 3.99C115.106 4.22 115.566 4.535 115.946 4.935C116.326 5.325 116.611 5.77 116.801 6.27C117.001 6.77 117.101 7.285 117.101 7.815V8.115C117.101 8.645 117.006 9.16 116.816 9.66C116.626 10.15 116.346 10.59 115.976 10.98C115.606 11.37 115.151 11.685 114.611 11.925C114.071 12.155 113.446 12.27 112.736 12.27ZM112.736 10.74C113.286 10.74 113.756 10.62 114.146 10.38C114.536 10.13 114.831 9.795 115.031 9.375C115.241 8.955 115.346 8.485 115.346 7.965C115.346 7.435 115.241 6.96 115.031 6.54C114.821 6.12 114.521 5.79 114.131 5.55C113.741 5.3 113.276 5.175 112.736 5.175C112.196 5.175 111.731 5.3 111.341 5.55C110.951 5.79 110.651 6.12 110.441 6.54C110.231 6.96 110.126 7.435 110.126 7.965C110.126 8.485 110.226 8.955 110.426 9.375C110.636 9.795 110.936 10.13 111.326 10.38C111.716 10.62 112.186 10.74 112.736 10.74ZM120.611 12L117.971 3.915H119.801L122.351 12H120.611ZM121.106 12V10.575H123.071V12H121.106ZM121.856 12L124.076 3.915H125.786L123.491 12H121.856Z" fill="black"></path> </svg> 